<svg width="168" height="38" viewBox="0 0 168 38" fill="none" xmlns="http://www.w3.org/2000/svg">
<g clip-path="url(#clip0_1_4034)">
<path d="M66.6074 13.9998V0.729004H70.3535C71.508 0.729004 72.5289 0.984208 73.416 1.49463C74.3032 2.00504 74.9868 2.73118 75.4668 3.67302C75.9529 4.61485 76.199 5.69645 76.2051 6.91781V7.76547C76.2051 9.01724 75.962 10.114 75.4759 11.0558C74.9959 11.9977 74.3062 12.7208 73.4069 13.2251C72.5137 13.7294 71.4716 13.9877 70.2806 13.9998H66.6074ZM68.3574 2.16911V12.5689H70.1986C71.5475 12.5689 72.5957 12.1496 73.3431 11.3111C74.0966 10.4725 74.4733 9.27849 74.4733 7.729V6.95427C74.4733 5.44732 74.1178 4.27762 73.4069 3.44515C72.702 2.60661 71.6994 2.18126 70.3991 2.16911H68.3574ZM83.7246 8.63138H80.6074V13.9998H78.8483V0.729004H83.2416C84.7363 0.729004 85.8848 1.06928 86.6869 1.74984C87.495 2.43039 87.8991 3.42085 87.8991 4.72119C87.8991 5.54758 87.6743 6.26763 87.2246 6.88135C86.7811 7.49506 86.1613 7.95386 85.3652 8.25766L88.4824 13.8905V13.9998H86.6048L83.7246 8.63138ZM80.6074 7.20036H83.2962C84.1652 7.20036 84.8548 6.97553 85.3652 6.52588C85.8817 6.07623 86.14 5.47466 86.14 4.72119C86.14 3.90088 85.8939 3.27197 85.4017 2.83447C84.9156 2.39697 84.2108 2.17519 83.2871 2.16911H80.6074V7.20036ZM97.8613 7.86574H92.11V12.5689H98.791V13.9998H90.36V0.729004H98.6999V2.16911H92.11V6.43474H97.8613V7.86574ZM108.298 10.5363H102.738L101.489 13.9998H99.6843L104.752 0.729004H106.283L111.36 13.9998H109.564L108.298 10.5363ZM103.266 9.09618H107.778L105.518 2.88916L103.266 9.09618ZM115.407 0.729004L119.745 11.5571L124.084 0.729004H126.354V13.9998H124.604V8.83189L124.768 3.25374L120.411 13.9998H119.071L114.723 3.28109L114.896 8.83189V13.9998H113.146V0.729004H115.407ZM132.816 7.82926L131.193 9.51548V13.9998H129.443V0.729004H131.193V7.2915L137.09 0.729004H139.205L133.982 6.58968L139.615 13.9998H137.519L132.816 7.82926ZM148.475 10.5363H142.915L141.666 13.9998H139.861L144.929 0.729004H146.46L151.537 13.9998H149.742L148.475 10.5363ZM143.443 9.09618H147.955L145.695 2.88916L143.443 9.09618ZM155.584 0.729004L159.923 11.5571L164.261 0.729004H166.531V13.9998H164.781V8.83189L164.945 3.25374L160.588 13.9998H159.248L154.901 3.28109L155.073 8.83189V13.9998H153.323V0.729004H155.584Z" fill="white"/>
<path d="M77.0404 24.1781H72.7748V36.0088H71.0339V24.1781H66.7773V22.738H77.0404V24.1781ZM88.9623 29.8018C88.9623 31.1021 88.7435 32.2384 88.306 33.2106C87.8685 34.1768 87.2488 34.9151 86.4466 35.4255C85.6446 35.9359 84.7088 36.1911 83.6393 36.1911C82.5942 36.1911 81.6676 35.9359 80.8594 35.4255C80.0513 34.909 79.4224 34.1768 78.9727 33.2289C78.5291 32.2749 78.3013 31.172 78.2891 29.9203V28.9632C78.2891 27.6872 78.5109 26.5601 78.9545 25.5818C79.398 24.6034 80.0239 23.856 80.8321 23.3395C81.6463 22.817 82.576 22.5557 83.6211 22.5557C84.6845 22.5557 85.6203 22.814 86.4284 23.3304C87.2426 23.8409 87.8685 24.5852 88.306 25.5635C88.7435 26.5357 88.9623 27.6689 88.9623 28.9632V29.8018ZM87.2214 28.945C87.2214 27.3712 86.9054 26.1651 86.2735 25.3265C85.6415 24.4819 84.7574 24.0596 83.6211 24.0596C82.5152 24.0596 81.6432 24.4819 81.0052 25.3265C80.3733 26.1651 80.0482 27.3318 80.03 28.8265V29.8018C80.03 31.327 80.349 32.527 80.987 33.402C81.6311 34.2709 82.5152 34.7054 83.6393 34.7054C84.7696 34.7054 85.6446 34.2953 86.2643 33.475C86.8841 32.6486 87.2032 31.4667 87.2214 29.9294V28.945ZM100.93 22.738V31.7614C100.924 33.0131 100.529 34.037 99.7449 34.833C98.9671 35.629 97.9098 36.0756 96.5729 36.1728L96.1081 36.1911C94.6559 36.1911 93.4983 35.7992 92.6354 35.0154C91.7726 34.2314 91.3351 33.1529 91.3229 31.7796V22.738H93.0547V31.725C93.0547 32.6851 93.319 33.4324 93.8477 33.9671C94.3763 34.4958 95.1298 34.7601 96.1081 34.7601C97.0985 34.7601 97.8551 34.4958 98.3776 33.9671C98.9062 33.4385 99.1706 32.6942 99.1706 31.7341V22.738H100.93ZM108.559 30.6404H105.441V36.0088H103.682V22.738H108.076C109.57 22.738 110.719 23.0783 111.521 23.7588C112.329 24.4394 112.733 25.4298 112.733 26.7302C112.733 27.5565 112.508 28.2766 112.059 28.8904C111.615 29.504 110.995 29.9628 110.199 30.2666L113.316 35.8995V36.0088H111.439L108.559 30.6404ZM105.441 29.2093H108.13C108.999 29.2093 109.689 28.9845 110.199 28.5348C110.716 28.0852 110.974 27.4837 110.974 26.7302C110.974 25.9098 110.728 25.2809 110.236 24.8434C109.75 24.4059 109.045 24.1842 108.121 24.1781H105.441V29.2093Z" fill="white"/>
</g>
<g clip-path="url(#clip1_1_4034)">
<path fill-rule="evenodd" clip-rule="evenodd" d="M0.607422 31.8498V2.02042C0.607422 0.904576 1.51337 0 2.63091 0H17.5682C19.0724 0 20.0508 1.5806 19.3781 2.92399L4.44077 32.7534C3.48586 34.6603 0.607422 33.9818 0.607422 31.8498ZM50.3852 31.8498V2.02042C50.3852 0.904576 49.4791 0 48.3617 0H33.4244C31.9202 0 30.9418 1.5806 31.6145 2.92399L46.5519 32.7534C47.5066 34.6603 50.3852 33.9818 50.3852 31.8498ZM26.5081 35.1554V5.32596C26.5081 3.19398 29.3865 2.51549 30.3414 4.42243L45.2787 34.2518C45.9513 35.5952 44.9732 37.1758 43.4689 37.1758H28.5315C27.414 37.1758 26.5081 36.2712 26.5081 35.1554ZM24.4846 5.32596V35.1554C24.4846 36.2712 23.5786 37.1758 22.4611 37.1758H7.52378C6.01956 37.1758 5.04121 35.5952 5.71389 34.2518L20.6512 4.42243C21.6061 2.51549 24.4846 3.19398 24.4846 5.32596Z" fill="url(#paint0_linear_1_4034)"/>
</g>
<defs>
<linearGradient id="paint0_linear_1_4034" x1="25.6987" y1="37.1758" x2="25.6987" y2="-4.4317e-06" gradientUnits="userSpaceOnUse">
<stop offset="0.286458" stop-color="white"/>
<stop offset="1" stop-color="white"/>
</linearGradient>
<clipPath id="clip0_1_4034">
<rect width="101.111" height="36.5556" fill="white" transform="translate(66)"/>
</clipPath>
<clipPath id="clip1_1_4034">
<rect width="49.7778" height="37.1758" fill="white"/>
</clipPath>
</defs>
</svg>
