<svg width="18" height="18" viewBox="0 0 18 18" fill="none" xmlns="http://www.w3.org/2000/svg">
<path d="M16.5478 5.56391e-05C16.5474 5.57609e-05 16.547 -9.52779e-06 16.5466 2.4379e-05L9.63563 0.030583C9.11789 0.0328796 8.69998 0.454402 8.70224 0.972233C8.7045 1.49 9.12606 1.90788 9.64383 1.90562L14.2838 1.88505L0.272855 15.9523C-0.0925372 16.3191 -0.0913475 16.9127 0.275512 17.2781C0.642372 17.6435 1.23594 17.6423 1.60133 17.2754L15.6122 3.20825L15.6103 7.84818C15.6101 8.36595 16.0297 8.78583 16.5475 8.78602C17.0653 8.78624 17.4852 8.36654 17.4854 7.84887L17.4882 0.93785C17.4882 0.937452 17.4882 0.937055 17.4882 0.936624C17.4877 0.417862 17.0649 -0.00154459 16.5478 5.56391e-05Z" fill="white"/>
</svg>
