<svg width="15" height="15" viewBox="0 0 15 15" fill="none" xmlns="http://www.w3.org/2000/svg">
<g clip-path="url(#clip0_6201_79)">
<path d="M14.4828 7.73016C14.4826 7.73034 14.4824 7.73054 14.4822 7.73071L11.4919 10.7066C11.2679 10.9295 10.9055 10.9287 10.6825 10.7047C10.4596 10.4806 10.4604 10.1183 10.6845 9.89533L12.6922 7.89736L0.572289 7.89736C0.256214 7.89736 2.82561e-07 7.64114 3.10193e-07 7.32507C3.37825e-07 7.00899 0.256214 6.75278 0.57229 6.75278L12.6921 6.75278L10.6845 4.7548C10.4605 4.53184 10.4596 4.1695 10.6826 3.94547C10.9056 3.72139 11.2679 3.72062 11.4919 3.94353L14.4823 6.91943C14.4824 6.9196 14.4826 6.9198 14.4828 6.91997C14.7069 7.14368 14.7062 7.5072 14.4828 7.73016Z" fill="white"/>
</g>
<defs>
<clipPath id="clip0_6201_79">
<rect width="14.6506" height="14.6506" fill="white" transform="matrix(1 8.74228e-08 8.74228e-08 -1 0 14.6506)"/>
</clipPath>
</defs>
</svg>
