<svg width="32" height="32" viewBox="0 0 32 32" fill="none" xmlns="http://www.w3.org/2000/svg">
<g opacity="0.8" clip-path="url(#clip0_6204_144)">
<path d="M29.8382 31.1353H2.16253C1.81847 31.1353 1.48849 30.9986 1.2452 30.7553C1.00191 30.512 0.865234 30.1821 0.865234 29.838V10.6683C0.865234 10.5536 0.910794 10.4436 0.991891 10.3625C1.07299 10.2814 1.18298 10.2358 1.29767 10.2358H30.7031C30.8178 10.2358 30.9277 10.2814 31.0088 10.3625C31.0899 10.4436 31.1355 10.5536 31.1355 10.6683V29.838C31.1355 30.1821 30.9988 30.512 30.7555 30.7553C30.5122 30.9986 30.1823 31.1353 29.8382 31.1353ZM1.7301 11.1007V29.838C1.7301 29.9527 1.77566 30.0627 1.85676 30.1438C1.93785 30.2249 2.04784 30.2704 2.16253 30.2704H29.8382C29.9529 30.2704 30.0629 30.2249 30.144 30.1438C30.2251 30.0627 30.2706 29.9527 30.2706 29.838V11.1007H1.7301Z" fill="#313131"/>
<path d="M1.29767 11.1007C1.18298 11.1007 1.07299 11.0552 0.991891 10.9741C0.910794 10.893 0.865234 10.783 0.865234 10.6683V5.18939C0.865234 4.84532 1.00191 4.51535 1.2452 4.27206C1.48849 4.02877 1.81847 3.89209 2.16253 3.89209H6.66848C6.78317 3.89209 6.89316 3.93765 6.97425 4.01875C7.05535 4.09984 7.10091 4.20983 7.10091 4.32452C7.10091 4.43921 7.05535 4.5492 6.97425 4.6303C6.89316 4.71139 6.78317 4.75695 6.66848 4.75695H2.16253C2.04784 4.75695 1.93785 4.80251 1.85676 4.88361C1.77566 4.96471 1.7301 5.0747 1.7301 5.18939V10.6683C1.7301 10.783 1.68454 10.893 1.60344 10.9741C1.52235 11.0552 1.41236 11.1007 1.29767 11.1007Z" fill="#313131"/>
<path d="M30.7026 11.1007C30.588 11.1007 30.478 11.0552 30.3969 10.9741C30.3158 10.893 30.2702 10.783 30.2702 10.6683V5.18939C30.2702 5.0747 30.2247 4.96471 30.1436 4.88361C30.0625 4.80251 29.9525 4.75695 29.8378 4.75695H25.3318C25.2172 4.75695 25.1072 4.71139 25.0261 4.6303C24.945 4.5492 24.8994 4.43921 24.8994 4.32452C24.8994 4.20983 24.945 4.09984 25.0261 4.01875C25.1072 3.93765 25.2172 3.89209 25.3318 3.89209H29.8378C30.1818 3.89209 30.5118 4.02877 30.7551 4.27206C30.9984 4.51535 31.1351 4.84532 31.1351 5.18939V10.6683C31.1351 10.783 31.0895 10.893 31.0084 10.9741C30.9273 11.0552 30.8173 11.1007 30.7026 11.1007Z" fill="#313131"/>
<path d="M22.2358 4.75696H9.76446C9.64978 4.75696 9.53978 4.7114 9.45869 4.6303C9.37759 4.5492 9.33203 4.43921 9.33203 4.32452C9.33203 4.20983 9.37759 4.09984 9.45869 4.01875C9.53978 3.93765 9.64978 3.89209 9.76446 3.89209H22.2358C22.3505 3.89209 22.4605 3.93765 22.5416 4.01875C22.6227 4.09984 22.6682 4.20983 22.6682 4.32452C22.6682 4.43921 22.6227 4.5492 22.5416 4.6303C22.4605 4.7114 22.3505 4.75696 22.2358 4.75696Z" fill="#313131"/>
<path d="M1.29767 11.1007C1.18298 11.1007 1.07299 11.0552 0.991891 10.9741C0.910794 10.893 0.865234 10.783 0.865234 10.6683V5.18939C0.865234 4.84532 1.00191 4.51535 1.2452 4.27206C1.48849 4.02877 1.81847 3.89209 2.16253 3.89209H6.66848C6.78317 3.89209 6.89316 3.93765 6.97425 4.01875C7.05535 4.09984 7.10091 4.20983 7.10091 4.32452C7.10091 4.43921 7.05535 4.5492 6.97425 4.6303C6.89316 4.71139 6.78317 4.75695 6.66848 4.75695H2.16253C2.04784 4.75695 1.93785 4.80251 1.85676 4.88361C1.77566 4.96471 1.7301 5.0747 1.7301 5.18939V10.6683C1.7301 10.783 1.68454 10.893 1.60344 10.9741C1.52235 11.0552 1.41236 11.1007 1.29767 11.1007Z" fill="#313131"/>
<path d="M30.7026 11.1007C30.588 11.1007 30.478 11.0552 30.3969 10.9741C30.3158 10.893 30.2702 10.783 30.2702 10.6683V5.18939C30.2702 5.0747 30.2247 4.96471 30.1436 4.88361C30.0625 4.80251 29.9525 4.75695 29.8378 4.75695H25.3318C25.2172 4.75695 25.1072 4.71139 25.0261 4.6303C24.945 4.5492 24.8994 4.43921 24.8994 4.32452C24.8994 4.20983 24.945 4.09984 25.0261 4.01875C25.1072 3.93765 25.2172 3.89209 25.3318 3.89209H29.8378C30.1818 3.89209 30.5118 4.02877 30.7551 4.27206C30.9984 4.51535 31.1351 4.84532 31.1351 5.18939V10.6683C31.1351 10.783 31.0895 10.893 31.0084 10.9741C30.9273 11.0552 30.8173 11.1007 30.7026 11.1007Z" fill="#313131"/>
<path d="M22.2358 4.75696H9.76446C9.64978 4.75696 9.53978 4.7114 9.45869 4.6303C9.37759 4.5492 9.33203 4.43921 9.33203 4.32452C9.33203 4.20983 9.37759 4.09984 9.45869 4.01875C9.53978 3.93765 9.64978 3.89209 9.76446 3.89209H22.2358C22.3505 3.89209 22.4605 3.93765 22.5416 4.01875C22.6227 4.09984 22.6682 4.20983 22.6682 4.32452C22.6682 4.43921 22.6227 4.5492 22.5416 4.6303C22.4605 4.7114 22.3505 4.75696 22.2358 4.75696Z" fill="#313131"/>
<path d="M23.7836 7.77845C23.2582 7.77788 22.7544 7.56889 22.3829 7.19735C22.0113 6.82581 21.8023 6.32205 21.8018 5.79661V2.85391C21.8018 2.32829 22.0106 1.8242 22.3822 1.45254C22.7539 1.08087 23.258 0.87207 23.7836 0.87207C24.3092 0.87207 24.8133 1.08087 25.185 1.45254C25.5566 1.8242 25.7654 2.32829 25.7654 2.85391V5.79704C25.7647 6.32241 25.5557 6.82605 25.1842 7.1975C24.8126 7.56895 24.309 7.77788 23.7836 7.77845ZM23.7836 1.7365C23.4874 1.73685 23.2034 1.8547 22.994 2.06419C22.7846 2.27368 22.6669 2.5577 22.6666 2.85391V5.79704C22.6666 5.94373 22.6955 6.08897 22.7516 6.22449C22.8078 6.36001 22.8901 6.48314 22.9938 6.58686C23.0975 6.69058 23.2206 6.77286 23.3561 6.82899C23.4917 6.88513 23.6369 6.91402 23.7836 6.91402C23.9303 6.91402 24.0755 6.88513 24.211 6.82899C24.3466 6.77286 24.4697 6.69058 24.5734 6.58686C24.6771 6.48314 24.7594 6.36001 24.8155 6.22449C24.8717 6.08897 24.9006 5.94373 24.9006 5.79704V2.85391C24.9003 2.5577 24.7826 2.27368 24.5732 2.06419C24.3638 1.8547 24.0798 1.73685 23.7836 1.7365Z" fill="#313131"/>
<path d="M8.21621 7.77845C7.69077 7.77788 7.18702 7.56889 6.81547 7.19735C6.44393 6.82581 6.23495 6.32205 6.23438 5.79661V2.85391C6.23437 2.59365 6.28564 2.33594 6.38523 2.09549C6.48483 1.85504 6.63081 1.63657 6.81484 1.45254C6.99887 1.26851 7.21735 1.12253 7.4578 1.02293C7.69824 0.923332 7.95595 0.87207 8.21621 0.87207C8.47647 0.87207 8.73418 0.923332 8.97463 1.02293C9.21507 1.12253 9.43355 1.26851 9.61758 1.45254C9.80161 1.63657 9.94759 1.85504 10.0472 2.09549C10.1468 2.33594 10.198 2.59365 10.198 2.85391V5.79704C10.1974 6.32241 9.98832 6.82605 9.61679 7.1975C9.24526 7.56895 8.74158 7.77788 8.21621 7.77845ZM8.21621 1.7365C7.92 1.73685 7.63603 1.8547 7.42662 2.06419C7.21721 2.27368 7.09947 2.5577 7.09924 2.85391V5.79704C7.09924 6.09328 7.21692 6.37739 7.42639 6.58686C7.63587 6.79634 7.91997 6.91402 8.21621 6.91402C8.51245 6.91402 8.79656 6.79634 9.00603 6.58686C9.2155 6.37739 9.33318 6.09328 9.33318 5.79704V2.85391C9.33295 2.5577 9.21521 2.27368 9.0058 2.06419C8.79639 1.8547 8.51242 1.73685 8.21621 1.7365Z" fill="#313131"/>
<path d="M26.486 17.2261H24.3239C24.0945 17.2261 23.8745 17.1349 23.7123 16.9727C23.5501 16.8105 23.459 16.5906 23.459 16.3612V14.6315C23.459 14.4021 23.5501 14.1821 23.7123 14.0199C23.8745 13.8577 24.0945 13.7666 24.3239 13.7666H26.486C26.7154 13.7666 26.9354 13.8577 27.0976 14.0199C27.2598 14.1821 27.3509 14.4021 27.3509 14.6315V16.3612C27.3509 16.5906 27.2598 16.8105 27.0976 16.9727C26.9354 17.1349 26.7154 17.2261 26.486 17.2261ZM24.3239 14.6315V16.3612H26.486V14.6315H24.3239Z" fill="#313131"/>
<path d="M20.2155 17.2261H18.0533C17.824 17.2261 17.604 17.1349 17.4418 16.9727C17.2796 16.8105 17.1885 16.5906 17.1885 16.3612V14.6315C17.1885 14.4021 17.2796 14.1821 17.4418 14.0199C17.604 13.8577 17.824 13.7666 18.0533 13.7666H20.2155C20.4449 13.7666 20.6649 13.8577 20.8271 14.0199C20.9893 14.1821 21.0804 14.4021 21.0804 14.6315V16.3612C21.0804 16.5906 20.9893 16.8105 20.8271 16.9727C20.6649 17.1349 20.4449 17.2261 20.2155 17.2261ZM18.0533 14.6315V16.3612H20.2155V14.6315H18.0533Z" fill="#313131"/>
<path d="M13.946 17.2261H11.7838C11.5544 17.2261 11.3345 17.1349 11.1723 16.9727C11.0101 16.8105 10.9189 16.5906 10.9189 16.3612V14.6315C10.9189 14.4021 11.0101 14.1821 11.1723 14.0199C11.3345 13.8577 11.5544 13.7666 11.7838 13.7666H13.946C14.1754 13.7666 14.3953 13.8577 14.5575 14.0199C14.7197 14.1821 14.8108 14.4021 14.8108 14.6315V16.3612C14.8108 16.5906 14.7197 16.8105 14.5575 16.9727C14.3953 17.1349 14.1754 17.2261 13.946 17.2261ZM11.7838 14.6315V16.3612H13.946V14.6315H11.7838Z" fill="#313131"/>
<path d="M26.486 22.415H24.3239C24.0945 22.415 23.8745 22.3239 23.7123 22.1617C23.5501 21.9995 23.459 21.7795 23.459 21.5502V19.8204C23.459 19.5911 23.5501 19.3711 23.7123 19.2089C23.8745 19.0467 24.0945 18.9556 24.3239 18.9556H26.486C26.7154 18.9556 26.9354 19.0467 27.0976 19.2089C27.2598 19.3711 27.3509 19.5911 27.3509 19.8204V21.5502C27.3509 21.7795 27.2598 21.9995 27.0976 22.1617C26.9354 22.3239 26.7154 22.415 26.486 22.415ZM24.3239 19.8204V21.5502H26.486V19.8204H24.3239Z" fill="#313131"/>
<path d="M20.2155 22.415H18.0533C17.824 22.415 17.604 22.3239 17.4418 22.1617C17.2796 21.9995 17.1885 21.7795 17.1885 21.5502V19.8204C17.1885 19.5911 17.2796 19.3711 17.4418 19.2089C17.604 19.0467 17.824 18.9556 18.0533 18.9556H20.2155C20.4449 18.9556 20.6649 19.0467 20.8271 19.2089C20.9893 19.3711 21.0804 19.5911 21.0804 19.8204V21.5502C21.0804 21.7795 20.9893 21.9995 20.8271 22.1617C20.6649 22.3239 20.4449 22.415 20.2155 22.415ZM18.0533 19.8204V21.5502H20.2155V19.8204H18.0533Z" fill="#313131"/>
<path d="M13.946 22.415H11.7838C11.5544 22.415 11.3345 22.3239 11.1723 22.1617C11.0101 21.9995 10.9189 21.7795 10.9189 21.5502V19.8204C10.9189 19.5911 11.0101 19.3711 11.1723 19.2089C11.3345 19.0467 11.5544 18.9556 11.7838 18.9556H13.946C14.1754 18.9556 14.3953 19.0467 14.5575 19.2089C14.7197 19.3711 14.8108 19.5911 14.8108 19.8204V21.5502C14.8108 21.7795 14.7197 21.9995 14.5575 22.1617C14.3953 22.3239 14.1754 22.415 13.946 22.415ZM11.7838 19.8204V21.5502H13.946V19.8204H11.7838Z" fill="#313131"/>
<path d="M7.67547 22.415H5.5133C5.28393 22.415 5.06394 22.3239 4.90175 22.1617C4.73956 21.9995 4.64844 21.7795 4.64844 21.5502V19.8204C4.64844 19.5911 4.73956 19.3711 4.90175 19.2089C5.06394 19.0467 5.28393 18.9556 5.5133 18.9556H7.67547C7.90485 18.9556 8.12483 19.0467 8.28702 19.2089C8.44922 19.3711 8.54034 19.5911 8.54034 19.8204V21.5502C8.54034 21.7795 8.44922 21.9995 8.28702 22.1617C8.12483 22.3239 7.90485 22.415 7.67547 22.415ZM5.5133 19.8204V21.5502H7.67547V19.8204H5.5133Z" fill="#313131"/>
<path d="M20.2155 27.6045H18.0533C17.824 27.6045 17.604 27.5134 17.4418 27.3512C17.2796 27.189 17.1885 26.969 17.1885 26.7396V25.0099C17.1885 24.7805 17.2796 24.5605 17.4418 24.3983C17.604 24.2361 17.824 24.145 18.0533 24.145H20.2155C20.4449 24.145 20.6649 24.2361 20.8271 24.3983C20.9893 24.5605 21.0804 24.7805 21.0804 25.0099V26.7396C21.0804 26.969 20.9893 27.189 20.8271 27.3512C20.6649 27.5134 20.4449 27.6045 20.2155 27.6045ZM18.0533 25.0099V26.7396H20.2155V25.0099H18.0533Z" fill="#313131"/>
<path d="M13.946 27.6045H11.7838C11.5544 27.6045 11.3345 27.5134 11.1723 27.3512C11.0101 27.189 10.9189 26.969 10.9189 26.7396V25.0099C10.9189 24.7805 11.0101 24.5605 11.1723 24.3983C11.3345 24.2361 11.5544 24.145 11.7838 24.145H13.946C14.1754 24.145 14.3953 24.2361 14.5575 24.3983C14.7197 24.5605 14.8108 24.7805 14.8108 25.0099V26.7396C14.8108 26.969 14.7197 27.189 14.5575 27.3512C14.3953 27.5134 14.1754 27.6045 13.946 27.6045ZM11.7838 25.0099V26.7396H13.946V25.0099H11.7838Z" fill="#313131"/>
<path d="M7.67547 27.6045H5.5133C5.28393 27.6045 5.06394 27.5134 4.90175 27.3512C4.73956 27.189 4.64844 26.969 4.64844 26.7396V25.0099C4.64844 24.7805 4.73956 24.5605 4.90175 24.3983C5.06394 24.2361 5.28393 24.145 5.5133 24.145H7.67547C7.90485 24.145 8.12483 24.2361 8.28702 24.3983C8.44922 24.5605 8.54034 24.7805 8.54034 25.0099V26.7396C8.54034 26.969 8.44922 27.189 8.28702 27.3512C8.12483 27.5134 7.90485 27.6045 7.67547 27.6045ZM5.5133 25.0099V26.7396H7.67547V25.0099H5.5133Z" fill="#313131"/>
</g>
<defs>
<clipPath id="clip0_6204_144">
<rect width="32" height="32" fill="white"/>
</clipPath>
</defs>
</svg>
