<svg width="26" height="26" viewBox="0 0 26 26" fill="none" xmlns="http://www.w3.org/2000/svg">
<g clip-path="url(#clip0_6204_212)">
<path d="M13 0.849609C19.7158 0.849609 25.1504 6.28508 25.1504 13C25.1504 19.7158 19.7149 25.1504 13 25.1504C6.28415 25.1504 0.849609 19.7149 0.849609 13C0.849609 6.28415 6.28508 0.849609 13 0.849609ZM13 3.02539C7.48623 3.02539 3.02539 7.48695 3.02539 13C3.02539 18.5138 7.48695 22.9746 13 22.9746C18.5138 22.9746 22.9746 18.5131 22.9746 13C22.9746 7.48623 18.5131 3.02539 13 3.02539ZM16.873 9.08594C17.2977 8.66185 17.9856 8.66183 18.4102 9.08594C18.8349 9.51071 18.835 10.1994 18.4102 10.624L12.1211 16.9141C11.6963 17.3384 11.0077 17.3386 10.583 16.9141L7.58984 13.9199C7.16512 13.4954 7.16434 12.8065 7.58887 12.3818L7.67188 12.3076C8.09892 11.9589 8.72879 11.9836 9.12695 12.3818L11.3516 14.6064L16.873 9.08594Z" fill="#198580" stroke="#198580" stroke-width="0.3"/>
</g>
<defs>
<clipPath id="clip0_6204_212">
<rect width="26" height="26" fill="white"/>
</clipPath>
</defs>
</svg>
