<svg width="21" height="20" viewBox="0 0 21 20" fill="none" xmlns="http://www.w3.org/2000/svg">
<g clip-path="url(#clip0_6204_207)">
<path d="M11.7869 19.9609H8.45435C7.89771 19.9609 7.44491 19.5258 7.44491 18.9908V11.7667H5.50065C4.94401 11.7667 4.49121 11.3313 4.49121 10.7965V7.70096C4.49121 7.16599 4.94401 6.7308 5.50065 6.7308H7.44491V5.18066C7.44491 3.64365 7.94709 2.33597 8.89699 1.39923C9.85118 0.458221 11.1847 -0.0390625 12.7533 -0.0390625L15.2948 -0.0350952C15.8505 -0.0341797 16.3025 0.401001 16.3025 0.935059V3.8092C16.3025 4.34418 15.8499 4.77936 15.2934 4.77936L13.5822 4.77997C13.0603 4.77997 12.9274 4.88052 12.899 4.91135C12.8522 4.96246 12.7965 5.10696 12.7965 5.50598V6.73065H15.1648C15.3431 6.73065 15.5158 6.77292 15.6643 6.85257C15.9845 7.02454 16.1836 7.3497 16.1836 7.70111L16.1823 10.7967C16.1823 11.3313 15.7295 11.7665 15.1729 11.7665H12.7965V18.9908C12.7965 19.5258 12.3435 19.9609 11.7869 19.9609ZM8.66487 18.7885H11.5763V11.2418C11.5763 10.8846 11.8788 10.594 12.2503 10.594H14.9624L14.9635 7.90329H12.2501C11.8786 7.90329 11.5763 7.61276 11.5763 7.25555V5.50598C11.5763 5.04791 11.6248 4.52698 11.9845 4.13544C12.4192 3.66211 13.1043 3.60748 13.5819 3.60748L15.0825 3.60687V1.13709L12.7523 1.13342C10.2314 1.13342 8.66487 2.68433 8.66487 5.18066V7.25555C8.66487 7.61261 8.36258 7.90329 7.99107 7.90329H5.71117V10.594H7.99107C8.36258 10.594 8.66487 10.8846 8.66487 11.2418V18.7885ZM15.2924 1.13739H15.2926H15.2924Z" fill="#BABABA"/>
</g>
<defs>
<clipPath id="clip0_6204_207">
<rect width="20.7692" height="20" fill="white"/>
</clipPath>
</defs>
</svg>
