<svg width="32" height="32" viewBox="0 0 32 32" fill="none" xmlns="http://www.w3.org/2000/svg">
<g opacity="0.8">
<path d="M24.2164 30.4866H7.78399C7.66931 30.4866 7.55932 30.441 7.47822 30.3599C7.39712 30.2788 7.35156 30.1688 7.35156 30.0541V4.10821C7.35156 3.99353 7.39712 3.88353 7.47822 3.80244C7.55932 3.72134 7.66931 3.67578 7.78399 3.67578H24.2164C24.3311 3.67578 24.4411 3.72134 24.5222 3.80244C24.6033 3.88353 24.6489 3.99353 24.6489 4.10821V30.0541C24.6489 30.1688 24.6033 30.2788 24.5222 30.3599C24.4411 30.441 24.3311 30.4866 24.2164 30.4866ZM8.21643 29.6217H23.784V4.54065H8.21643V29.6217Z" fill="#313131"/>
<path d="M20.7575 4.5407H11.244C11.1293 4.5407 11.0193 4.49514 10.9382 4.41404C10.8571 4.33295 10.8115 4.22295 10.8115 4.10827V1.9461C10.8115 1.83142 10.8571 1.72143 10.9382 1.64033C11.0193 1.55923 11.1293 1.51367 11.244 1.51367H20.7575C20.8721 1.51367 20.9821 1.55923 21.0632 1.64033C21.1443 1.72143 21.1899 1.83142 21.1899 1.9461V4.10827C21.1899 4.22295 21.1443 4.33295 21.0632 4.41404C20.9821 4.49514 20.8721 4.5407 20.7575 4.5407ZM11.6764 3.67583H20.325V2.37854H11.6764V3.67583Z" fill="#313131"/>
<path d="M30.7021 30.4864H24.2156C24.1009 30.4864 23.991 30.4408 23.9099 30.3597C23.8288 30.2786 23.7832 30.1686 23.7832 30.0539V9.29718C23.7832 9.18249 23.8288 9.0725 23.9099 8.9914C23.991 8.91031 24.1009 8.86475 24.2156 8.86475H30.7021C30.8168 8.86475 30.9268 8.91031 31.0079 8.9914C31.089 9.0725 31.1345 9.18249 31.1345 9.29718V30.0539C31.1345 30.1686 31.089 30.2786 31.0079 30.3597C30.9268 30.4408 30.8168 30.4864 30.7021 30.4864ZM24.6481 29.6215H30.2697V9.72961H24.6481V29.6215Z" fill="#313131"/>
<path d="M7.78415 30.4864H1.29767C1.18298 30.4864 1.07299 30.4408 0.991891 30.3597C0.910794 30.2786 0.865234 30.1686 0.865234 30.0539V9.29718C0.865234 9.18249 0.910794 9.0725 0.991891 8.9914C1.07299 8.91031 1.18298 8.86475 1.29767 8.86475H7.78415C7.89884 8.86475 8.00883 8.91031 8.08993 8.9914C8.17103 9.0725 8.21659 9.18249 8.21659 9.29718V30.0539C8.21659 30.1686 8.17103 30.2786 8.08993 30.3597C8.00883 30.4408 7.89884 30.4864 7.78415 30.4864ZM1.7301 29.6215H7.35172V9.72961H1.7301V29.6215Z" fill="#313131"/>
<path d="M20.4322 10.2702H18.5944C18.365 10.2702 18.145 10.1791 17.9828 10.0169C17.8206 9.8547 17.7295 9.63471 17.7295 9.40534V7.5675C17.7295 7.33812 17.8206 7.11814 17.9828 6.95595C18.145 6.79376 18.365 6.70264 18.5944 6.70264H20.4322C20.6616 6.70264 20.8816 6.79376 21.0437 6.95595C21.2059 7.11814 21.2971 7.33812 21.2971 7.5675V9.40534C21.2971 9.63471 21.2059 9.8547 21.0437 10.0169C20.8816 10.1791 20.6616 10.2702 20.4322 10.2702ZM18.5944 7.5675V9.40534H20.4322V7.5675H18.5944Z" fill="#313131"/>
<path d="M13.4058 10.2702H11.568C11.3386 10.2702 11.1186 10.1791 10.9564 10.0169C10.7942 9.8547 10.7031 9.63471 10.7031 9.40534V7.5675C10.7031 7.33812 10.7942 7.11814 10.9564 6.95595C11.1186 6.79376 11.3386 6.70264 11.568 6.70264H13.4058C13.6352 6.70264 13.8552 6.79376 14.0174 6.95595C14.1796 7.11814 14.2707 7.33812 14.2707 7.5675V9.40534C14.2707 9.63471 14.1796 9.8547 14.0174 10.0169C13.8552 10.1791 13.6352 10.2702 13.4058 10.2702ZM13.4058 7.5675H11.568V9.40534H13.4058V7.5675Z" fill="#313131"/>
<path d="M20.4322 15.6218H18.5944C18.365 15.6218 18.145 15.5306 17.9828 15.3685C17.8206 15.2063 17.7295 14.9863 17.7295 14.7569V12.9191C17.7295 12.6897 17.8206 12.4697 17.9828 12.3075C18.145 12.1453 18.365 12.0542 18.5944 12.0542H20.4322C20.6616 12.0542 20.8816 12.1453 21.0437 12.3075C21.2059 12.4697 21.2971 12.6897 21.2971 12.9191V14.7569C21.2971 14.9863 21.2059 15.2063 21.0437 15.3685C20.8816 15.5306 20.6616 15.6218 20.4322 15.6218ZM18.5944 12.9191V14.7569H20.4322V12.9191H18.5944Z" fill="#313131"/>
<path d="M13.4058 15.6218H11.568C11.3386 15.6218 11.1186 15.5306 10.9564 15.3685C10.7942 15.2063 10.7031 14.9863 10.7031 14.7569V12.9191C10.7031 12.6897 10.7942 12.4697 10.9564 12.3075C11.1186 12.1453 11.3386 12.0542 11.568 12.0542H13.4058C13.6352 12.0542 13.8552 12.1453 14.0174 12.3075C14.1796 12.4697 14.2707 12.6897 14.2707 12.9191V14.7569C14.2707 14.9863 14.1796 15.2063 14.0174 15.3685C13.8552 15.5306 13.6352 15.6218 13.4058 15.6218ZM13.4058 12.9186H11.568V14.7565H13.4058V12.9186Z" fill="#313131"/>
<path d="M20.4322 20.9728H18.5944C18.365 20.9728 18.145 20.8817 17.9828 20.7195C17.8206 20.5573 17.7295 20.3374 17.7295 20.108V18.2701C17.7295 18.0408 17.8206 17.8208 17.9828 17.6586C18.145 17.4964 18.365 17.4053 18.5944 17.4053H20.4322C20.6616 17.4053 20.8816 17.4964 21.0437 17.6586C21.2059 17.8208 21.2971 18.0408 21.2971 18.2701V20.108C21.2971 20.3374 21.2059 20.5573 21.0437 20.7195C20.8816 20.8817 20.6616 20.9728 20.4322 20.9728ZM18.5944 18.2701V20.108H20.4322V18.2701H18.5944Z" fill="#313131"/>
<path d="M13.4058 20.9728H11.568C11.3386 20.9728 11.1186 20.8817 10.9564 20.7195C10.7942 20.5573 10.7031 20.3374 10.7031 20.108V18.2701C10.7031 18.0408 10.7942 17.8208 10.9564 17.6586C11.1186 17.4964 11.3386 17.4053 11.568 17.4053H13.4058C13.6352 17.4053 13.8552 17.4964 14.0174 17.6586C14.1796 17.8208 14.2707 18.0408 14.2707 18.2701V20.108C14.2707 20.3374 14.1796 20.5573 14.0174 20.7195C13.8552 20.8817 13.6352 20.9728 13.4058 20.9728ZM13.4058 18.2697H11.568V20.108H13.4058V18.2697Z" fill="#313131"/>
<path d="M18.6843 30.4864H13.3152C13.2006 30.4864 13.0906 30.4408 13.0095 30.3598C12.9284 30.2787 12.8828 30.1687 12.8828 30.054V23.1351C12.8828 23.0204 12.9284 22.9104 13.0095 22.8293C13.0906 22.7482 13.2006 22.7026 13.3152 22.7026H18.6843C18.799 22.7026 18.909 22.7482 18.9901 22.8293C19.0712 22.9104 19.1168 23.0204 19.1168 23.1351V30.054C19.1168 30.1687 19.0712 30.2787 18.9901 30.3598C18.909 30.4408 18.799 30.4864 18.6843 30.4864ZM13.7477 29.6215H18.2519V23.5675H13.7477V29.6215Z" fill="#313131"/>
<path d="M28.1347 15.7837H26.7838C26.5544 15.7837 26.3345 15.6926 26.1723 15.5304C26.0101 15.3682 25.9189 15.1482 25.9189 14.9189V13.5675C25.9189 13.3381 26.0101 13.1181 26.1723 12.9559C26.3345 12.7938 26.5544 12.7026 26.7838 12.7026H28.1347C28.3641 12.7026 28.5841 12.7938 28.7463 12.9559C28.9085 13.1181 28.9996 13.3381 28.9996 13.5675V14.9189C28.9996 15.1482 28.9085 15.3682 28.7463 15.5304C28.5841 15.6926 28.3641 15.7837 28.1347 15.7837ZM26.7838 13.5675V14.9189H28.1347V13.5675H26.7838Z" fill="#313131"/>
<path d="M28.1347 21.2159H26.7838C26.5544 21.2159 26.3345 21.1248 26.1723 20.9626C26.0101 20.8004 25.9189 20.5804 25.9189 20.351V19.0001C25.9189 18.7707 26.0101 18.5508 26.1723 18.3886C26.3345 18.2264 26.5544 18.1353 26.7838 18.1353H28.1347C28.3641 18.1353 28.5841 18.2264 28.7463 18.3886C28.9085 18.5508 28.9996 18.7707 28.9996 19.0001V20.351C28.9996 20.5804 28.9085 20.8004 28.7463 20.9626C28.5841 21.1248 28.3641 21.2159 28.1347 21.2159ZM26.7838 19.0001V20.351H28.1347V19.0001H26.7838Z" fill="#313131"/>
<path d="M28.1347 26.6485H26.7838C26.5544 26.6485 26.3345 26.5573 26.1723 26.3951C26.0101 26.233 25.9189 26.013 25.9189 25.7836V24.4322C25.9189 24.2029 26.0101 23.9829 26.1723 23.8207C26.3345 23.6585 26.5544 23.5674 26.7838 23.5674H28.1347C28.3641 23.5674 28.5841 23.6585 28.7463 23.8207C28.9085 23.9829 28.9996 24.2029 28.9996 24.4322V25.7836C28.9996 26.013 28.9085 26.233 28.7463 26.3951C28.5841 26.5573 28.3641 26.6485 28.1347 26.6485ZM26.7838 24.4322V25.7836H28.1347V24.4322H26.7838Z" fill="#313131"/>
<path d="M5.21579 15.7837H3.86487C3.63549 15.7837 3.41551 15.6926 3.25331 15.5304C3.09112 15.3682 3 15.1482 3 14.9189V13.5675C3 13.3381 3.09112 13.1181 3.25331 12.9559C3.41551 12.7938 3.63549 12.7026 3.86487 12.7026H5.21579C5.44516 12.7026 5.66514 12.7938 5.82734 12.9559C5.98953 13.1181 6.08065 13.3381 6.08065 13.5675V14.9189C6.08065 15.1482 5.98953 15.3682 5.82734 15.5304C5.66514 15.6926 5.44516 15.7837 5.21579 15.7837ZM3.86487 13.5675V14.9189H5.21579V13.5675H3.86487Z" fill="#313131"/>
<path d="M5.21579 21.2159H3.86487C3.63549 21.2159 3.41551 21.1248 3.25331 20.9626C3.09112 20.8004 3 20.5804 3 20.351V19.0001C3 18.7707 3.09112 18.5508 3.25331 18.3886C3.41551 18.2264 3.63549 18.1353 3.86487 18.1353H5.21579C5.44516 18.1353 5.66514 18.2264 5.82734 18.3886C5.98953 18.5508 6.08065 18.7707 6.08065 19.0001V20.351C6.08065 20.5804 5.98953 20.8004 5.82734 20.9626C5.66514 21.1248 5.44516 21.2159 5.21579 21.2159ZM3.86487 19.0001V20.351H5.21579V19.0001H3.86487Z" fill="#313131"/>
<path d="M5.21579 26.6485H3.86487C3.63549 26.6485 3.41551 26.5573 3.25331 26.3951C3.09112 26.233 3 26.013 3 25.7836V24.4322C3 24.2029 3.09112 23.9829 3.25331 23.8207C3.41551 23.6585 3.63549 23.5674 3.86487 23.5674H5.21579C5.44516 23.5674 5.66514 23.6585 5.82734 23.8207C5.98953 23.9829 6.08065 24.2029 6.08065 24.4322V25.7836C6.08065 26.013 5.98953 26.233 5.82734 26.3951C5.66514 26.5573 5.44516 26.6485 5.21579 26.6485ZM3.86487 24.4322V25.7836H5.21579V24.4322H3.86487Z" fill="#313131"/>
</g>
</svg>
