<svg width="32" height="32" viewBox="0 0 32 32" fill="none" xmlns="http://www.w3.org/2000/svg">
<g opacity="0.8" clip-path="url(#clip0_6204_127)">
<path d="M15.9995 9.6001C14.8213 9.6001 13.8662 10.5552 13.8662 11.7334V29.8668C13.8662 31.045 14.8213 32.0001 15.9995 32.0001C17.1777 32.0001 18.1329 31.045 18.1329 29.8668V11.7334C18.1329 10.5552 17.1777 9.6001 15.9995 9.6001ZM17.0662 29.8668C17.0662 30.4559 16.5887 30.9334 15.9995 30.9334C15.4104 30.9334 14.9329 30.4559 14.9329 29.8668V11.7334C14.9329 11.1443 15.4104 10.6668 15.9995 10.6668C16.5887 10.6668 17.0662 11.1443 17.0662 11.7334V29.8668Z" fill="#212121"/>
<path d="M9.06693 16C7.88873 16 6.93359 16.9551 6.93359 18.1333V29.8667C6.93359 31.0449 7.88873 32 9.06693 32C10.2451 32 11.2003 31.0449 11.2003 29.8667V18.1333C11.2003 16.9551 10.2451 16 9.06693 16ZM10.1336 29.8667C10.1336 30.4558 9.65606 30.9333 9.06693 30.9333C8.47779 30.9333 8.00026 30.4558 8.00026 29.8667V18.1333C8.00026 17.5442 8.47779 17.0667 9.06693 17.0667C9.65606 17.0667 10.1336 17.5442 10.1336 18.1333V29.8667Z" fill="#212121"/>
<path d="M2.13333 23.4668C0.955133 23.4668 0 24.4219 0 25.6001V29.8668C0 31.045 0.955133 32.0001 2.13333 32.0001C3.31153 32.0001 4.26667 31.045 4.26667 29.8668V25.6001C4.26667 24.4219 3.31153 23.4668 2.13333 23.4668ZM3.2 29.8668C3.2 30.4559 2.72247 30.9335 2.13333 30.9335C1.5442 30.9335 1.06667 30.4559 1.06667 29.8668V25.6001C1.06667 25.011 1.5442 24.5335 2.13333 24.5335C2.72247 24.5335 3.2 25.011 3.2 25.6001V29.8668Z" fill="#212121"/>
<path d="M22.9331 3.2002C21.7549 3.2002 20.7998 4.15533 20.7998 5.33353V29.8669C20.7998 31.0451 21.7549 32.0002 22.9331 32.0002C24.1113 32.0002 25.0665 31.0451 25.0665 29.8669V5.33353C25.0665 4.15533 24.1113 3.2002 22.9331 3.2002ZM23.9998 29.8669C23.9998 30.456 23.5223 30.9335 22.9331 30.9335C22.344 30.9335 21.8665 30.456 21.8665 29.8669V5.33353C21.8665 4.7444 22.344 4.26686 22.9331 4.26686C23.5223 4.26686 23.9998 4.7444 23.9998 5.33353V29.8669Z" fill="#212121"/>
<path d="M29.8667 0C28.6885 0 27.7334 0.955133 27.7334 2.13333V29.8667C27.7334 31.0449 28.6885 32 29.8667 32C31.0449 32 32.0001 31.0449 32.0001 29.8667V2.13333C32.0001 0.955133 31.0449 0 29.8667 0ZM30.9334 29.8667C30.9334 30.4558 30.4559 30.9333 29.8667 30.9333C29.2776 30.9333 28.8001 30.4558 28.8001 29.8667V2.13333C28.8001 1.5442 29.2776 1.06667 29.8667 1.06667C30.4559 1.06667 30.9334 1.5442 30.9334 2.13333V29.8667Z" fill="#212121"/>
</g>
<defs>
<clipPath id="clip0_6204_127">
<rect width="32" height="32" fill="white"/>
</clipPath>
</defs>
</svg>
